<svg width="28" height="28" viewBox="0 0 28 28" fill="none" xmlns="http://www.w3.org/2000/svg">
<path d="M14.7344 27.0324C16.4938 26.8886 17.3594 26.7355 18.5938 26.3417C20.1 25.8636 21.5063 25.1136 22.75 24.1261C23.2625 23.7199 24.275 22.7105 24.6906 22.1917C25.3719 21.3417 25.8594 20.5886 26.3281 19.6605C26.8031 18.7199 27.1063 17.898 27.3719 16.8355C27.8656 14.8574 27.9375 13.1949 27.6063 11.2542C27.1438 8.5511 25.7563 5.9136 23.75 3.93235C22.6219 2.8136 21.4813 2.01673 20.0625 1.34798C18.6156 0.669854 17.175 0.260479 15.5156 0.060479C14.7781 -0.027021 12.8813 -0.017646 12.0938 0.076104C10.1563 0.313604 8.425 0.879229 6.78125 1.8136C4.66563 3.01985 2.88125 4.85423 1.69688 7.0511C0.896878 8.52923 0.406253 10.0136 0.175003 11.6605C-0.124997 13.7699 0.0656276 15.7761 0.771878 17.9105C1.6125 20.4574 3.20313 22.6667 5.40938 24.3449C6.56563 25.2261 8.1375 26.0136 9.57813 26.4386C10.3813 26.673 11.5188 26.8824 12.5625 26.9886C12.9031 27.023 14.4594 27.0542 14.7344 27.0324ZM14.1563 26.1636V25.9667L14.3188 25.9449C14.4094 25.9355 14.6031 25.9261 14.75 25.9261C15.7063 25.9261 17.1781 25.648 18.3438 25.2542C20.2219 24.6167 21.6875 23.7136 23.0313 22.3636C24.6531 20.7386 25.7844 18.7417 26.325 16.5511C26.6156 15.3667 26.7563 13.9667 26.6875 12.873C26.5313 10.2292 25.5375 7.7011 23.8719 5.69173C23.0219 4.66673 22.1969 3.91985 21.0969 3.19173C19.1156 1.87923 17.1594 1.25735 14.4906 1.09798L14.1563 1.0761V0.860479C14.1563 0.741729 14.1656 0.644854 14.1781 0.644854C14.1938 0.644854 14.4281 0.660479 14.7031 0.676104C15.9656 0.757354 16.9969 0.957354 18.25 1.36985C20.925 2.2511 23.2906 4.0261 24.8813 6.34798C26.0094 7.99798 26.7125 9.81985 27.0594 11.9886C27.3 13.5105 27.1625 15.0855 26.6094 17.073C25.9 19.6136 24.2625 22.0449 22.1563 23.6792C21.025 24.5605 19.5594 25.3261 18.2125 25.7386C17.0281 26.1042 15.6219 26.3355 14.4438 26.3574L14.1563 26.3636V26.1636ZM12.7094 26.3167C9.52188 26.0449 6.80625 24.8511 4.65 22.773C3.05313 21.2355 1.95938 19.4792 1.33125 17.4449C0.709378 15.4417 0.537503 13.723 0.784378 12.0136C1.21563 9.02298 2.475 6.46673 4.52813 4.4261C5.44063 3.51985 6.25313 2.90735 7.3125 2.3261C9.15 1.31985 10.9281 0.813604 13.1625 0.663604L13.4063 0.644854V0.860479C13.4063 1.10735 13.4 1.1136 13.0906 1.1136C12.85 1.1136 12.0719 1.19798 11.5938 1.27298C9.22188 1.64798 6.99688 2.69173 5.3125 4.2136C4.37188 5.0636 3.7 5.8511 3.09063 6.81673C2.05 8.4636 1.4625 10.123 1.19688 12.1605C1.10938 12.8417 1.11875 14.3855 1.2125 15.0824C1.40313 16.4699 1.83438 17.8824 2.4125 19.0355C3.36875 20.9355 4.7875 22.5949 6.45313 23.7542C8.09063 24.898 10.1406 25.6355 12.3344 25.8761C12.5781 25.9042 12.8531 25.9261 12.9469 25.9261C13.0406 25.9261 13.1813 25.9355 13.2625 25.9449L13.4063 25.9667V26.1636C13.4063 26.3449 13.4 26.3636 13.3406 26.3636C13.3063 26.3636 13.0219 26.3417 12.7094 26.3167ZM12.9063 25.1605C10.7625 24.973 8.75 24.298 7.15 23.2292C6.1 22.5261 5.075 21.573 4.39063 20.6605C2.95313 18.7449 2.2 16.873 1.91875 14.5042C1.85625 13.9855 1.875 12.9324 1.95 12.3824C2.16563 10.8792 2.55 9.57923 3.13438 8.41048C4.2625 6.14485 6.13438 4.24798 8.30938 3.1636C9.61875 2.51048 10.8031 2.15423 12.375 1.93548C12.8781 1.86673 14.775 1.85735 15.2813 1.91985C16.7344 2.1011 17.9531 2.44798 19.1406 3.01673C21.4125 4.11048 23.2188 5.78235 24.4219 7.91048C25.2313 9.34173 25.7688 11.0792 25.9406 12.8167C26.0531 13.9605 25.7906 15.798 25.3188 17.1761C24.2406 20.3199 21.8969 22.8824 18.9406 24.1511C17.6469 24.7042 16.2625 25.0542 14.9063 25.173C14.4125 25.2167 13.4844 25.2105 12.9063 25.1605Z" fill="white"/>
<path d="M14.6562 24.1417C16.0219 24.0698 17.5125 23.7042 18.7969 23.1292C20.7656 22.248 22.4531 20.673 23.5562 18.6917C24.625 16.7698 25.1187 14.1855 24.8125 12.1292C24.4562 9.73234 23.4031 7.62609 21.7625 6.01984C20.8594 5.13547 19.95 4.50422 18.7656 3.93859C17.2281 3.20422 15.35 2.84484 13.375 2.90422C12.2125 2.93859 11.275 3.10109 10.1562 3.46359C7.7 4.25422 5.625 5.94484 4.34687 8.19172C3.68125 9.36359 3.225 10.723 2.99687 12.2073C2.91562 12.7417 2.88125 13.9542 2.93437 14.4292C3.05 15.4386 3.32812 16.5855 3.66875 17.4667C4.6375 19.9573 6.60937 22.0355 9.0625 23.1636C10.3594 23.7605 11.6594 24.0698 13.1875 24.1448C13.8344 24.1761 14.0062 24.1761 14.6562 24.1417ZM14.125 13.523V3.67922L14.35 3.69484C15.4844 3.77609 16.5812 3.99172 17.4937 4.31984C18.0125 4.50422 18.9125 4.94484 19.4406 5.27297C21.2812 6.41672 22.6531 8.05734 23.4219 10.0355C23.6812 10.7042 23.9094 11.5105 24 12.0823C24.0219 12.2105 24.05 12.3948 24.0656 12.4886C24.0812 12.5823 24.1031 12.8105 24.1156 12.9948L24.1344 13.3323H20.4187C18.375 13.3323 16.6 13.323 16.475 13.3136L16.25 13.2917V10.2198V7.14797L16.0844 7.12922C15.9969 7.11984 15.8312 7.11359 15.7187 7.11984L15.5156 7.12922L15.5062 13.4355L15.5 19.7386H15.875H16.25V16.9417V14.1448H20.1844H24.1156L24.0594 14.5292C23.9375 15.323 23.7875 15.9417 23.5312 16.6917C23.1656 17.7605 22.6594 18.6667 21.8812 19.6417C21.5625 20.0417 20.75 20.8542 20.3437 21.1761C19.0625 22.1917 17.3844 22.9261 15.6562 23.223C15.25 23.2917 14.6594 23.3573 14.3656 23.3605L14.125 23.3636V13.523ZM12.375 23.2698C11.1969 23.1042 10.2531 22.8136 9.1875 22.2792C8.10312 21.7386 7.11875 20.9917 6.28437 20.0761C4.83125 18.4761 4.05 16.7198 3.70625 14.2792L3.6875 14.1448H7.4375H11.1875V16.9605V19.773L11.5531 19.7511C11.7562 19.7417 11.925 19.7292 11.925 19.7261C11.9281 19.7261 11.9344 16.8886 11.9406 13.4261L11.9531 7.12922L11.5687 7.11984L11.1875 7.11047V10.223V13.3323H7.43125H3.67812L3.69687 13.0292C3.7625 12.0511 4.1 10.7355 4.55312 9.67609C5.55625 7.34797 7.34687 5.54484 9.65625 4.54172C10.7406 4.06984 11.7687 3.82297 13.1625 3.69172L13.375 3.66984V13.5198V23.373L13.0844 23.3511C12.9281 23.3386 12.6062 23.3011 12.375 23.2698Z" fill="white"/>
</svg>
