<svg width="31" height="29" viewBox="0 0 31 29" fill="none" xmlns="http://www.w3.org/2000/svg">
<path d="M11.2347 28.9101C8.94915 28.8764 8.13428 28.833 7.03974 28.6691C4.91818 28.3556 3.46683 27.7336 2.44462 26.7114C1.25847 25.5156 0.544857 23.9389 0.270017 21.8993C0.0530391 20.3033 0 18.8857 0 14.6667C0.00482174 8.05612 0.135009 6.78318 1.01739 5.00878C1.39348 4.24694 1.80815 3.67798 2.46391 3.04633C3.90079 1.65285 5.48714 1.0212 8.05231 0.804219C8.82861 0.736714 17.1316 0.649923 19.2387 0.683675C23.1251 0.75118 24.5861 0.968158 26.0374 1.69624C27.0066 2.18324 27.9516 2.96436 28.5736 3.78888C28.9304 4.26623 29.3403 5.06664 29.5524 5.69829C29.7116 6.18046 29.9093 7.17374 29.9864 7.91629C30.1021 8.9626 30.1359 10.5586 30.1359 14.8355C30.1359 20.2744 30.0925 21.34 29.8176 22.7431C29.3692 25.0576 28.1397 26.8464 26.3219 27.8204C25.2032 28.4231 23.6651 28.7414 21.288 28.8667C20.1308 28.9246 14.2868 28.9487 11.2347 28.9101ZM21.3458 27.2322C22.937 27.1309 23.8242 26.9814 24.697 26.668C25.5167 26.3739 26.2303 25.9207 26.7896 25.3372C27.5466 24.5513 27.8986 23.8087 28.2265 22.3092C28.5013 21.0362 28.5447 20.0719 28.5447 14.9801C28.5447 9.97517 28.4965 8.65401 28.2554 7.24124C28.0432 5.99241 27.5321 4.99431 26.6787 4.17462C26.1579 3.66833 25.7867 3.4176 25.1309 3.10901C23.7615 2.46772 23.0672 2.40021 17.5994 2.38093C11.8374 2.35682 7.86426 2.40986 7.2085 2.51111C5.82466 2.73291 4.95193 3.0849 4.00204 3.79852C2.57481 4.87377 1.89977 6.46012 1.68761 9.24227C1.54296 11.1324 1.51885 16.4749 1.63939 19.0545C1.81297 22.6612 2.24211 24.1077 3.51987 25.3951C4.85549 26.7404 6.30201 27.1502 10.1305 27.2756C11.8277 27.3286 20.3574 27.2949 21.3458 27.2322Z" fill="black"/>
<path d="M10.1739 26.7886C6.80831 26.7211 5.50162 26.4462 4.30583 25.5446C3.2788 24.7683 2.65679 23.6544 2.38678 22.1018C2.13122 20.5926 2.0589 18.6109 2.08783 13.7747C2.11676 9.46888 2.15533 8.64436 2.41571 7.36178C2.75323 5.69346 3.53917 4.5266 4.87479 3.72137C5.56912 3.30187 6.57687 2.99328 7.64247 2.87756C8.87684 2.74255 19.3545 2.7088 21.7702 2.83417C23.9158 2.94507 25.2081 3.39349 26.2737 4.39641C27.373 5.43308 27.7781 6.52762 27.9758 9.00117C28.0625 10.1295 28.0674 19.4933 27.9758 20.5975C27.8407 22.2465 27.6623 23.071 27.2718 23.8762C26.7993 24.8454 26.1869 25.4771 25.2659 25.9448C24.1714 26.5041 23.101 26.7066 20.8782 26.7693C19.4654 26.8127 12.0206 26.8223 10.1739 26.7886ZM17.8887 25.0045C22.0498 24.7827 23.5494 24.127 24.1521 22.261C24.5571 21.0025 24.6295 20.0285 24.6729 15.5346C24.697 12.3619 24.6584 10.2934 24.5427 9.141C24.3595 7.33285 23.7037 6.40225 22.3247 6.00205C21.9727 5.90079 21.1096 5.82365 20.3574 5.81882H19.8608L19.8752 6.02616L19.8897 6.22867L20.9264 6.26242C22.0836 6.29618 22.3295 6.34439 22.8599 6.61923C23.2649 6.83621 23.4915 7.0773 23.7037 7.52572C23.9255 8.00307 23.993 8.4081 24.1328 10.1825C24.2003 11.0311 24.2919 12.0196 24.3305 12.3764C24.3739 12.7332 24.4173 13.5481 24.4318 14.1845C24.4511 15.1923 24.4366 15.5057 24.3305 16.5954C24.263 17.2897 24.1859 18.2107 24.1569 18.6447C23.993 21.1954 23.8483 22.1308 23.5253 22.7769C23.3131 23.1916 22.8647 23.6159 22.4115 23.828C21.1337 24.4163 18.1635 24.6815 13.959 24.5754C10.6368 24.4934 9.01185 24.3006 7.8932 23.857C6.74081 23.3989 6.46597 22.883 6.22488 20.6939C6.17184 20.2165 6.10434 19.5222 6.07541 19.1509C6.04648 18.7797 5.96933 17.9021 5.90182 17.1981C5.75235 15.6021 5.70895 14.2328 5.78128 13.4372C6.21042 8.5624 6.29721 7.85842 6.53347 7.39071C6.91921 6.62888 7.52675 6.32511 8.79487 6.27689C9.14203 6.26242 9.54224 6.23832 9.68207 6.22385L9.9328 6.19974V6.00205V5.80436L9.1999 5.83811C7.66176 5.91044 7.006 6.15152 6.43222 6.86514C5.88736 7.54983 5.68967 8.37917 5.58841 10.4188C5.52091 11.7544 5.55948 18.3312 5.63663 19.3679C5.76682 21.0459 6.02719 22.3526 6.34542 22.9264C6.95779 24.0257 8.23555 24.5995 10.7284 24.884C11.7843 25.0045 12.0785 25.019 13.5009 25.0576C15.068 25.0913 16.5916 25.0769 17.8887 25.0045ZM5.61734 24.18C4.95194 23.5532 4.6771 23.0855 4.46012 22.2176C4.11778 20.8675 4.07438 19.9803 4.07921 14.8114C4.08403 9.19404 4.13225 8.31166 4.50352 7.20749C4.69639 6.64334 4.89408 6.29618 5.27018 5.88633C6.10434 4.97502 7.25673 4.61339 9.3349 4.61339H10.0196L10.0485 4.46391C10.1064 4.17461 10.1112 4.17943 9.65796 4.17943C7.63765 4.17943 6.22488 4.55553 5.23642 5.36076C4.26243 6.15635 3.8333 7.24606 3.65489 9.41102C3.5681 10.4766 3.5681 18.553 3.65489 19.7295C3.82848 22.0681 4.14189 23.0421 4.98569 23.8762C5.31357 24.2041 5.84879 24.5706 5.99344 24.5754C6.01755 24.5754 5.84396 24.397 5.61734 24.18ZM24.6536 24.3922C25.29 24.098 25.6517 23.693 25.9699 22.9215C26.2303 22.2802 26.3653 21.6631 26.4858 20.5975C26.5871 19.662 26.5919 19.474 26.5919 14.6426C26.5919 9.43031 26.5823 9.10243 26.3749 8.03683C26.0374 6.27689 25.1165 5.16307 23.5301 4.58928C22.7586 4.31444 21.5194 4.15532 20.3478 4.18908C19.745 4.20354 19.7209 4.21801 19.7884 4.49767L19.8174 4.61339H20.7817C22.6959 4.61339 23.6507 4.86412 24.5957 5.61631C25.5263 6.35404 25.9024 7.29428 26.0326 9.19404C26.1146 10.3754 26.1483 16.1566 26.0905 18.2589C25.9988 21.3786 25.8783 22.1838 25.3479 23.2735C25.1888 23.6062 25.0682 23.7653 24.7259 24.1077C24.4945 24.3391 24.3161 24.5272 24.3257 24.5272C24.3402 24.5272 24.4848 24.4645 24.6536 24.3922ZM16.0757 22.8637C16.7363 22.7769 17.7681 22.5213 18.2985 22.314C19.5907 21.8125 20.8589 20.8916 21.7123 19.8404C23.3469 17.8153 23.9544 15.2935 23.4289 12.6946C22.8647 9.89802 20.748 7.47268 17.9514 6.41672C16.3361 5.80436 14.7304 5.73203 12.9946 6.18528C9.83154 7.00497 7.28566 9.8932 6.75045 13.2636C6.65884 13.8277 6.64437 14.0592 6.66848 14.7101C6.71188 16.0313 6.95779 17.0438 7.51711 18.1866C8.46217 20.1153 10.0437 21.557 12.0785 22.3478C13.4189 22.8685 14.7449 23.0373 16.0757 22.8637Z" fill="black"/>
<path d="M14.0313 19.0496C12.1315 18.6446 10.8586 17.3572 10.4584 15.4382C10.3667 15.0042 10.3764 13.9241 10.4776 13.4612C10.6609 12.5837 11.0032 11.981 11.6927 11.2915C12.2086 10.7755 12.6956 10.4525 13.2839 10.2307C13.8866 9.99924 14.2338 9.95102 15.1403 9.9462C16.1191 9.9462 16.5627 10.0282 17.2377 10.3464C18.4576 10.9154 19.3014 11.8604 19.7016 13.0996C19.8174 13.4612 19.8366 13.6011 19.8559 14.334C19.8897 15.5732 19.7209 16.2482 19.1761 17.0631C18.5107 18.066 17.4161 18.8182 16.2878 19.0496C15.8153 19.1461 14.4845 19.1509 14.0313 19.0496ZM15.3476 16.2964C15.2608 16.2868 15.1162 16.2868 15.0342 16.2964C14.9474 16.3061 15.0149 16.3157 15.1885 16.3157C15.3621 16.3157 15.4296 16.3061 15.3476 16.2964ZM14.1422 15.361C14.4315 15.3128 14.7063 14.9994 14.7063 14.7053C14.7063 14.5076 14.5279 14.3195 14.1518 14.1218C13.8384 13.9531 13.8143 13.9338 13.7998 13.765C13.7902 13.6686 13.8191 13.5095 13.8625 13.4082C13.9348 13.2346 13.9348 13.2298 13.8529 13.307C13.5636 13.5673 13.2694 14.3484 13.3321 14.6811C13.39 14.9994 13.5491 15.3465 13.7323 15.5587L13.9107 15.7709L13.9348 15.5828C13.9589 15.4044 13.9734 15.3899 14.1422 15.361Z" fill="black"/>
</svg>
